<?xml version="1.0" encoding="utf-8"?>
<!-- Generator: Adobe Illustrator 21.0.2, SVG Export Plug-In . SVG Version: 6.00 Build 0)  -->
<svg version="1.1" id="Layer_1" xmlns="http://www.w3.org/2000/svg" xmlns:xlink="http://www.w3.org/1999/xlink" x="0px" y="0px"
	 viewBox="0 0 512 512" style="enable-background:new 0 0 512 512;" xml:space="preserve">
<style type="text/css">
	.st0{fill:#1B71FA;}
</style>
<g>
	<g>
		<g>
			<path class="st0" d="M102.4,0C60.1,0,25.6,34.5,25.6,76.8s34.4,76.8,76.8,76.8s76.8-34.4,76.8-76.8C179.2,34.4,144.8,0,102.4,0z
				 M102.4,128c-28.3,0-51.2-22.9-51.2-51.2s22.9-51.2,51.2-51.2s51.2,22.9,51.2,51.2S130.7,128,102.4,128z"/>
		</g>
	</g>
	<g>
		<g>
			<path class="st0" d="M486.4,128h-256c-14.1,0-25.6,11.5-25.6,25.6v19.5l25.6,12.8v-32.3h256v204.8h-256V328l-25.6-6.4v36.8
				c0,14.1,11.5,25.6,25.6,25.6h105.4l-65.2,108.6c-3.7,6-1.7,13.9,4.4,17.6c6,3.7,13.9,1.7,17.6-4.4l53-88.4v81.8
				c0,7.1,5.7,12.8,12.8,12.8c7.1,0,12.8-5.7,12.8-12.8v-81.8l53,88.4c2.4,4,6.6,6.2,11,6.2c2.3,0,4.5-0.6,6.6-1.8
				c6.1-3.6,8-11.5,4.4-17.6L381,384h105.4c14.1,0,25.6-11.5,25.6-25.6V153.6C512,139.5,500.5,128,486.4,128z"/>
		</g>
	</g>
	<g>
		<g>
			<path class="st0" d="M447.5,201.3c-1.9-6.8-9-10.8-15.8-8.8l-158,45.1c-1.8-1.8-3.9-3.3-6.3-4.5l-102.4-51.2
				c-3.6-1.8-7.5-2.7-11.5-2.7H51.2c-12.4,0-23,8.8-25.2,21L0.4,341c-1.4,7.5,0.7,15.2,5.5,21c4.9,5.8,12.1,9.2,19.7,9.2H42
				l9.3,117.2c1.1,13.3,12.2,23.6,25.5,23.6H128c13,0,24-9.8,25.4-22.8l22.4-201.3l74,18.5c2,0.5,4.1,0.8,6.2,0.8
				c5.6,0,11.2-1.9,15.8-5.4c6.2-4.8,9.8-12.3,9.8-20.2V262l157.1-44.9C445.5,215.2,449.4,208.1,447.5,201.3z M256,281.6L153.6,256
				L128,486.4H76.8L65.6,345.6h-40l25.6-140.8h38.4v77.9c0,7.1,5.7,12.8,12.8,12.8s12.8-5.7,12.8-12.8v-77.9h38.4L256,256V281.6z"/>
		</g>
	</g>
</g>
</svg>
